<svg width="132" height="27" viewBox="0 0 132 27" fill="none" xmlns="http://www.w3.org/2000/svg">
<g clip-path="url(#clip0_2991_333)">
<path d="M19.0548 1.05265C15.7043 -1.3869 13.1414 1.1781 13.1414 1.1781C13.1414 1.1781 0.328636 19.4433 0 21.1949C0 24.1949 2.89159 23.4449 2.89159 23.4449C2.89159 23.4449 13.5355 20.194 13.9295 20.0692C14.3236 19.9445 16.1605 19.6172 16.1605 19.6172L25.3295 16.847C25.3295 16.847 27.2386 16.0097 30.5891 18.1554C27.2093 12.9797 20.2411 2.36992 19.0548 1.05265ZM15.3961 14.9651C15.2509 15.0115 11.3393 16.2067 11.3393 16.2067C11.3393 16.2067 10.2764 16.4795 10.2764 15.379C10.3977 14.7354 15.1064 8.02287 15.1064 8.02287C15.1064 8.02287 16.048 7.07992 17.2793 7.97651C17.715 8.4606 20.2793 12.3599 21.5182 14.2622C20.2861 13.4733 19.5852 13.7815 19.5852 13.7815L16.2157 14.7988C16.2157 14.7988 15.5407 14.9195 15.3961 14.9651Z" fill="#6D61DF"/>
<path d="M30.6553 18.5932C31.678 20.1559 32.3687 21.2236 32.4778 21.3886C32.4792 21.3912 32.4808 21.3937 32.4826 21.3961C32.485 21.4006 32.4877 21.4049 32.4907 21.4091C32.4906 21.4107 32.4906 21.4123 32.4907 21.4138C32.4955 21.5032 32.5589 22.8409 31.676 23.5957C31.5945 23.6666 31.5068 23.7303 31.4142 23.7859C31.1878 23.9222 30.8864 23.9829 30.5462 23.9904C29.6892 24.0136 28.586 23.7075 27.8264 23.4538C27.4644 23.3325 27.1814 23.2234 27.0382 23.1668L26.938 23.1259L16.8348 20.2302L16.6303 20.1722L16.5437 20.147L16.4346 20.1157C16.4324 20.1163 16.43 20.1163 16.4278 20.1157L16.3698 20.0993L16.2246 20.057L25.3937 17.2875C25.3937 17.2875 27.3028 16.4475 30.6553 18.5932Z" fill="#1F1B39"/>
</g>
<path d="M53.9511 8.192V2.816C54.5751 2.432 55.4951 2.24 56.7111 2.24V19.784C56.1831 20.072 55.5031 20.216 54.6711 20.216L54.2871 18.704H54.1431C53.4551 19.888 52.2551 20.48 50.5431 20.48C49.0231 20.48 47.8391 19.96 46.9911 18.92C46.1431 17.88 45.7191 16.416 45.7191 14.528C45.7191 12.368 46.2471 10.704 47.3031 9.536C48.3591 8.368 49.8071 7.784 51.6471 7.784C52.5911 7.784 53.3591 7.92 53.9511 8.192ZM53.9751 16.88V10.52C53.4951 10.28 52.9031 10.16 52.1991 10.16C50.9511 10.16 50.0231 10.536 49.4151 11.288C48.8231 12.04 48.5271 13.072 48.5271 14.384C48.5271 16.768 49.4951 17.96 51.4311 17.96C52.3751 17.96 53.2231 17.6 53.9751 16.88ZM60.457 19.856V8.408C60.729 8.264 61.185 8.192 61.825 8.192C62.481 8.192 62.945 8.264 63.217 8.408V19.856C62.945 20 62.481 20.072 61.825 20.072C61.169 20.072 60.713 20 60.457 19.856ZM60.601 2.96C60.905 2.656 61.321 2.504 61.849 2.504C62.377 2.504 62.793 2.656 63.097 2.96C63.401 3.264 63.553 3.696 63.553 4.256C63.553 4.816 63.393 5.248 63.073 5.552C62.769 5.84 62.353 5.984 61.825 5.984C61.281 5.984 60.857 5.84 60.553 5.552C60.265 5.248 60.121 4.824 60.121 4.28C60.121 3.72 60.281 3.28 60.601 2.96ZM67.7886 15.776V15.632C66.8126 14.912 66.3246 13.752 66.3246 12.152C66.3246 10.744 66.7646 9.664 67.6446 8.912C68.5406 8.16 69.7326 7.784 71.2206 7.784C72.1966 7.784 73.0286 7.944 73.7166 8.264H77.1006C77.3406 8.792 77.4606 9.48 77.4606 10.328H75.6366V10.424C75.9566 10.824 76.1166 11.44 76.1166 12.272C76.1166 13.632 75.6926 14.688 74.8446 15.44C73.9966 16.192 72.8046 16.568 71.2686 16.568C70.5806 16.568 70.0446 16.488 69.6606 16.328C69.3726 16.536 69.2286 16.848 69.2286 17.264C69.2286 17.648 69.4446 17.912 69.8766 18.056C70.3246 18.184 71.0286 18.248 71.9886 18.248C73.7966 18.248 75.1726 18.512 76.1166 19.04C77.0766 19.552 77.5566 20.512 77.5566 21.92C77.5566 24.768 75.5086 26.192 71.4126 26.192C67.5566 26.192 65.6286 24.968 65.6286 22.52C65.6286 21.768 65.7966 21.144 66.1326 20.648C66.4846 20.168 66.9326 19.84 67.4766 19.664V19.52C66.8526 19.152 66.5406 18.568 66.5406 17.768C66.5406 17.288 66.6526 16.872 66.8766 16.52C67.1006 16.152 67.4046 15.904 67.7886 15.776ZM71.3646 20.48C70.4846 20.48 69.8286 20.408 69.3966 20.264C68.6286 20.68 68.2446 21.28 68.2446 22.064C68.2446 23.36 69.3726 24.008 71.6286 24.008C73.8526 24.008 74.9646 23.36 74.9646 22.064C74.9646 21.488 74.7006 21.08 74.1726 20.84C73.6606 20.6 72.7246 20.48 71.3646 20.48ZM68.8686 12.152C68.8686 12.888 69.0686 13.456 69.4686 13.856C69.8686 14.256 70.4526 14.456 71.2206 14.456C71.9726 14.456 72.5486 14.256 72.9486 13.856C73.3646 13.44 73.5726 12.872 73.5726 12.152C73.5726 11.432 73.3646 10.88 72.9486 10.496C72.5486 10.096 71.9726 9.896 71.2206 9.896C70.4526 9.896 69.8686 10.096 69.4686 10.496C69.0686 10.896 68.8686 11.448 68.8686 12.152ZM85.9911 18.92H85.8471C85.2071 19.96 84.1031 20.48 82.5351 20.48C81.3831 20.48 80.4391 20.184 79.7031 19.592C78.9671 18.984 78.5991 18.048 78.5991 16.784C78.5991 15.408 79.0391 14.392 79.9191 13.736C80.7991 13.064 81.9751 12.728 83.4471 12.728C84.3431 12.728 85.1111 12.848 85.7511 13.088V12.632C85.7511 11.768 85.5511 11.144 85.1511 10.76C84.7671 10.376 84.1351 10.184 83.2551 10.184C81.9271 10.184 80.6791 10.528 79.5111 11.216C79.3991 10.864 79.3671 10.424 79.4151 9.896C79.4791 9.352 79.6151 8.92 79.8231 8.6C80.7831 8.056 82.0951 7.784 83.7591 7.784C85.3911 7.784 86.5831 8.144 87.3351 8.864C88.1031 9.568 88.4871 10.752 88.4871 12.416V17.144C88.4871 17.736 88.7591 18.032 89.3031 18.032C89.7191 18.032 90.0791 17.928 90.3831 17.72C90.4311 18.088 90.4071 18.496 90.3111 18.944C90.2151 19.392 90.0711 19.744 89.8791 20C89.3671 20.32 88.7751 20.48 88.1031 20.48C86.9191 20.48 86.2151 19.96 85.9911 18.92ZM85.7751 17.096V15.104C85.2311 14.896 84.6151 14.792 83.9271 14.792C83.0951 14.792 82.4551 14.96 82.0071 15.296C81.5591 15.616 81.3351 16.056 81.3351 16.616C81.3351 17.64 82.0071 18.152 83.3511 18.152C84.4551 18.152 85.2631 17.8 85.7751 17.096ZM93.3589 15.776V15.632C92.3829 14.912 91.8949 13.752 91.8949 12.152C91.8949 10.744 92.3349 9.664 93.2149 8.912C94.1109 8.16 95.3029 7.784 96.7909 7.784C97.7669 7.784 98.5989 7.944 99.2869 8.264H102.671C102.911 8.792 103.031 9.48 103.031 10.328H101.207V10.424C101.527 10.824 101.687 11.44 101.687 12.272C101.687 13.632 101.263 14.688 100.415 15.44C99.5669 16.192 98.3749 16.568 96.8389 16.568C96.1509 16.568 95.6149 16.488 95.2309 16.328C94.9429 16.536 94.7989 16.848 94.7989 17.264C94.7989 17.648 95.0149 17.912 95.4469 18.056C95.8949 18.184 96.5989 18.248 97.5589 18.248C99.3669 18.248 100.743 18.512 101.687 19.04C102.647 19.552 103.127 20.512 103.127 21.92C103.127 24.768 101.079 26.192 96.9829 26.192C93.1269 26.192 91.1989 24.968 91.1989 22.52C91.1989 21.768 91.3669 21.144 91.7029 20.648C92.0549 20.168 92.5029 19.84 93.0469 19.664V19.52C92.4229 19.152 92.1109 18.568 92.1109 17.768C92.1109 17.288 92.2229 16.872 92.4469 16.52C92.6709 16.152 92.9749 15.904 93.3589 15.776ZM96.9349 20.48C96.0549 20.48 95.3989 20.408 94.9669 20.264C94.1989 20.68 93.8149 21.28 93.8149 22.064C93.8149 23.36 94.9429 24.008 97.1989 24.008C99.4229 24.008 100.535 23.36 100.535 22.064C100.535 21.488 100.271 21.08 99.7429 20.84C99.2309 20.6 98.2949 20.48 96.9349 20.48ZM94.4389 12.152C94.4389 12.888 94.6389 13.456 95.0389 13.856C95.4389 14.256 96.0229 14.456 96.7909 14.456C97.5429 14.456 98.1189 14.256 98.5189 13.856C98.9349 13.44 99.1429 12.872 99.1429 12.152C99.1429 11.432 98.9349 10.88 98.5189 10.496C98.1189 10.096 97.5429 9.896 96.7909 9.896C96.0229 9.896 95.4389 10.096 95.0389 10.496C94.6389 10.896 94.4389 11.448 94.4389 12.152ZM115.012 15.008H107.356C107.468 17.104 108.812 18.152 111.388 18.152C112.78 18.152 114.02 17.872 115.108 17.312C115.14 17.696 115.084 18.12 114.94 18.584C114.812 19.032 114.636 19.376 114.412 19.616C113.436 20.192 112.204 20.48 110.716 20.48C108.732 20.48 107.204 19.928 106.132 18.824C105.06 17.72 104.524 16.2 104.524 14.264C104.524 12.312 105.052 10.744 106.108 9.56C107.18 8.376 108.628 7.784 110.452 7.784C112.052 7.784 113.26 8.248 114.076 9.176C114.908 10.088 115.324 11.32 115.324 12.872C115.324 13.672 115.22 14.384 115.012 15.008ZM107.356 12.896H112.636C112.732 12.064 112.596 11.368 112.228 10.808C111.876 10.232 111.244 9.944 110.332 9.944C109.452 9.944 108.748 10.216 108.22 10.76C107.708 11.288 107.42 12 107.356 12.896ZM117.557 17.144C118.021 17.48 118.621 17.752 119.357 17.96C120.109 18.152 120.813 18.248 121.469 18.248C122.877 18.248 123.581 17.784 123.581 16.856C123.581 16.44 123.381 16.096 122.981 15.824C122.597 15.536 122.125 15.296 121.565 15.104C121.021 14.896 120.469 14.672 119.909 14.432C119.365 14.176 118.893 13.792 118.493 13.28C118.109 12.768 117.917 12.136 117.917 11.384C117.917 10.232 118.269 9.344 118.973 8.72C119.693 8.096 120.725 7.784 122.069 7.784C123.349 7.784 124.421 8.056 125.285 8.6C125.493 8.872 125.645 9.264 125.741 9.776C125.837 10.288 125.845 10.736 125.765 11.12C124.709 10.368 123.573 9.992 122.357 9.992C121.237 9.992 120.677 10.368 120.677 11.12C120.677 11.504 120.869 11.832 121.253 12.104C121.653 12.36 122.125 12.584 122.669 12.776C123.229 12.968 123.781 13.192 124.325 13.448C124.885 13.688 125.357 14.072 125.741 14.6C126.141 15.112 126.341 15.752 126.341 16.52C126.341 17.896 125.901 18.904 125.021 19.544C124.157 20.168 122.989 20.48 121.517 20.48C120.077 20.48 118.909 20.24 118.013 19.76C117.789 19.44 117.629 19.008 117.533 18.464C117.453 17.904 117.461 17.464 117.557 17.144Z" fill="black"/>
<defs>
<clipPath id="clip0_2991_333">
<rect width="32.4955" height="24" fill="white"/>
</clipPath>
</defs>
</svg>
