<svg width="126" height="28" viewBox="0 0 126 28" fill="none" xmlns="http://www.w3.org/2000/svg">
<g clip-path="url(#clip0_262_814)">
<g filter="url(#filter0_d_262_814)">
<path fill-rule="evenodd" clip-rule="evenodd" d="M20.8015 6.13792C20.6804 8.60919 19.3579 10.1941 17.6523 10.1106C15.9468 10.0271 14.7276 8.18677 14.8486 5.7155C14.9697 3.24423 16.4523 0.928343 17.9475 1.0017C19.5725 1.083 20.9229 3.66629 20.8015 6.13792ZM10.3256 10.1141C12.033 10.1141 13.2761 8.46635 13.2761 5.99183C13.2761 3.51767 11.7999 1.00195 10.1735 1.00195C8.67644 1.00195 7.30981 3.38722 7.30981 5.86174C7.30981 8.33626 8.61826 10.1141 10.3256 10.1141ZM22.0634 14.2149C23.383 14.7851 24.9097 14.0501 25.7361 12.1375C26.5622 10.2253 26.0769 7.68462 25.0037 7.24377C23.8466 6.74402 21.9933 8.13161 21.1672 10.0446C20.3412 11.9576 20.8915 13.6729 22.0634 14.2149ZM2.40712 12.0876C3.21835 13.9666 4.70132 14.8082 5.99712 14.2484C7.29292 13.6887 7.70269 11.9112 6.89182 10.0337C6.08096 8.15609 4.55425 6.75153 3.1262 7.28452C2.07973 7.77125 1.59625 10.2104 2.40712 12.0876ZM18.6747 12.9904C20.6429 14.8611 21.8694 16.7846 22.407 17.7241C22.6153 18.0882 22.725 18.5004 22.725 18.9198V21.8829C22.725 22.7095 22.3967 23.5023 21.8122 24.0868C21.2277 24.6714 20.435 24.9998 19.6084 24.9999H8.45209C7.62547 24.9998 6.83274 24.6714 6.24827 24.0868C5.6638 23.5023 5.33545 22.7095 5.33545 21.8829V18.9198C5.33553 18.5004 5.44514 18.0882 5.65344 17.7241C6.19113 16.7846 7.41754 14.8626 9.38581 12.9904C12.1346 10.3761 14.0248 10.7736 14.0248 10.7736H14.0357C14.0357 10.7736 15.9259 10.3761 18.6747 12.9904ZM10.8077 16.007H11.3498L11.3479 16.0066C11.3484 15.7135 11.4653 15.4325 11.6728 15.2254C11.8803 15.0184 12.1616 14.9021 12.4548 14.9023V14.3603C12.0181 14.3608 11.5995 14.5344 11.2908 14.8431C10.982 15.1518 10.8083 15.5704 10.8077 16.007ZM12.0979 20.0337C12.2944 20.2302 12.5609 20.3406 12.8389 20.3406L15.2328 20.3428C15.5107 20.3428 15.7773 20.2324 15.9738 20.0359C16.1703 19.8394 16.2807 19.5728 16.2807 19.2949V16.4475C16.2807 16.1695 16.1703 15.903 15.9738 15.7065C15.7773 15.51 15.5107 15.3996 15.2328 15.3996H12.8389C12.5609 15.3996 12.2944 15.51 12.0979 15.7065C11.9014 15.903 11.791 16.1695 11.791 16.4475V19.2927C11.791 19.5707 11.9014 19.8372 12.0979 20.0337ZM16.2358 21.2717C16.4356 21.189 16.6171 21.0674 16.7696 20.9141H16.7678C16.9216 20.7617 17.0436 20.5803 17.1267 20.3804C17.2098 20.1804 17.2524 19.966 17.252 19.7495H16.71C16.71 20.0424 16.5936 20.3234 16.3865 20.5306C16.1793 20.7377 15.8983 20.8541 15.6054 20.8541V21.3962C15.8217 21.3967 16.0359 21.3545 16.2358 21.2717ZM15.06 15.853H14.5202C14.4027 15.853 14.29 15.8996 14.2068 15.9826C14.1236 16.0656 14.0767 16.1782 14.0764 16.2957V16.3802C14.0764 16.4979 14.1232 16.6108 14.2064 16.694C14.2896 16.7772 14.4025 16.824 14.5202 16.824H14.8056C14.8264 16.824 14.847 16.8281 14.8662 16.836C14.8854 16.844 14.9028 16.8556 14.9175 16.8703C14.9322 16.885 14.9439 16.9025 14.9518 16.9217C14.9598 16.9409 14.9639 16.9615 14.9639 16.9822V17.3537C14.9639 17.4714 15.0106 17.5843 15.0939 17.6675C15.1771 17.7507 15.2899 17.7975 15.4076 17.7975C15.5253 17.7975 15.6382 17.7507 15.7214 17.6675C15.8046 17.5843 15.8514 17.4714 15.8514 17.3537V16.644C15.8514 16.5401 15.8309 16.4372 15.7911 16.3412C15.7513 16.2452 15.693 16.158 15.6196 16.0846C15.5461 16.0111 15.4588 15.9529 15.3628 15.9131C15.2668 15.8734 15.1639 15.853 15.06 15.853Z" fill="white"/>
</g>
</g>
<path d="M47.696 6.2C50.112 6.2 51.96 6.64 53.24 7.52C54.536 8.4 55.184 9.776 55.184 11.648C55.184 12.624 55.008 13.464 54.656 14.168C54.32 14.856 53.824 15.424 53.168 15.872C52.512 16.304 51.712 16.624 50.768 16.832C49.824 17.04 48.744 17.144 47.528 17.144H46.016V23H42.992V6.608C43.696 6.448 44.472 6.344 45.32 6.296C46.184 6.232 46.976 6.2 47.696 6.2ZM47.912 8.816C47.144 8.816 46.512 8.84 46.016 8.888V14.552H47.48C48.936 14.552 50.056 14.352 50.84 13.952C51.624 13.536 52.016 12.76 52.016 11.624C52.016 11.08 51.912 10.624 51.704 10.256C51.496 9.888 51.208 9.6 50.84 9.392C50.472 9.184 50.032 9.04 49.52 8.96C49.024 8.864 48.488 8.816 47.912 8.816ZM56.4254 16.784C56.4254 15.68 56.5854 14.712 56.9054 13.88C57.2414 13.048 57.6814 12.36 58.2254 11.816C58.7694 11.256 59.3934 10.84 60.0974 10.568C60.8014 10.28 61.5214 10.136 62.2574 10.136C63.9854 10.136 65.3294 10.672 66.2894 11.744C67.2654 12.816 67.7534 14.416 67.7534 16.544C67.7534 16.704 67.7454 16.888 67.7294 17.096C67.7294 17.288 67.7214 17.464 67.7054 17.624H59.4254C59.5054 18.632 59.8574 19.416 60.4814 19.976C61.1214 20.52 62.0414 20.792 63.2414 20.792C63.9454 20.792 64.5854 20.728 65.1614 20.6C65.7534 20.472 66.2174 20.336 66.5534 20.192L66.9374 22.568C66.7774 22.648 66.5534 22.736 66.2654 22.832C65.9934 22.912 65.6734 22.984 65.3054 23.048C64.9534 23.128 64.5694 23.192 64.1534 23.24C63.7374 23.288 63.3134 23.312 62.8814 23.312C61.7774 23.312 60.8174 23.152 60.0014 22.832C59.1854 22.496 58.5134 22.04 57.9854 21.464C57.4574 20.872 57.0654 20.184 56.8094 19.4C56.5534 18.6 56.4254 17.728 56.4254 16.784ZM64.8494 15.488C64.8494 15.088 64.7934 14.712 64.6814 14.36C64.5694 13.992 64.4014 13.68 64.1774 13.424C63.9694 13.152 63.7054 12.944 63.3854 12.8C63.0814 12.64 62.7134 12.56 62.2814 12.56C61.8334 12.56 61.4414 12.648 61.1054 12.824C60.7694 12.984 60.4814 13.2 60.2414 13.472C60.0174 13.744 59.8414 14.056 59.7134 14.408C59.5854 14.76 59.4974 15.12 59.4494 15.488H64.8494ZM70.6884 7.136L73.5924 6.656V10.448H78.0564V12.872H73.5924V17.984C73.5924 18.992 73.7524 19.712 74.0724 20.144C74.3924 20.576 74.9364 20.792 75.7044 20.792C76.2324 20.792 76.6964 20.736 77.0964 20.624C77.5124 20.512 77.8404 20.408 78.0804 20.312L78.5604 22.616C78.2244 22.76 77.7844 22.904 77.2404 23.048C76.6964 23.208 76.0564 23.288 75.3204 23.288C74.4244 23.288 73.6724 23.168 73.0644 22.928C72.4724 22.688 72.0004 22.344 71.6484 21.896C71.2964 21.432 71.0484 20.88 70.9044 20.24C70.7604 19.584 70.6884 18.84 70.6884 18.008V7.136ZM88.0156 16.4C88.0156 15.088 87.8476 14.144 87.5116 13.568C87.1916 12.976 86.5836 12.68 85.6876 12.68C85.3676 12.68 85.0156 12.704 84.6316 12.752C84.2476 12.8 83.9596 12.84 83.7676 12.872V23H80.8636V10.856C81.4236 10.696 82.1516 10.544 83.0476 10.4C83.9596 10.256 84.9196 10.184 85.9276 10.184C86.7916 10.184 87.4956 10.296 88.0396 10.52C88.5996 10.744 89.0636 11.04 89.4316 11.408C89.6076 11.28 89.8316 11.144 90.1036 11C90.3756 10.856 90.6796 10.728 91.0156 10.616C91.3516 10.488 91.7036 10.384 92.0716 10.304C92.4556 10.224 92.8396 10.184 93.2236 10.184C94.1996 10.184 94.9996 10.328 95.6236 10.616C96.2636 10.888 96.7596 11.28 97.1116 11.792C97.4796 12.288 97.7276 12.896 97.8556 13.616C97.9996 14.32 98.0716 15.096 98.0716 15.944V23H95.1676V16.4C95.1676 15.088 95.0076 14.144 94.6876 13.568C94.3676 12.976 93.7516 12.68 92.8396 12.68C92.3756 12.68 91.9356 12.76 91.5196 12.92C91.1036 13.064 90.7916 13.208 90.5836 13.352C90.7116 13.752 90.7996 14.176 90.8476 14.624C90.8956 15.072 90.9196 15.552 90.9196 16.064V23H88.0156V16.4ZM106.045 20.96C106.941 20.96 107.621 20.912 108.085 20.816V17.6C107.925 17.552 107.693 17.504 107.389 17.456C107.085 17.408 106.749 17.384 106.381 17.384C106.061 17.384 105.733 17.408 105.397 17.456C105.077 17.504 104.781 17.592 104.509 17.72C104.253 17.848 104.045 18.032 103.885 18.272C103.725 18.496 103.645 18.784 103.645 19.136C103.645 19.824 103.861 20.304 104.293 20.576C104.725 20.832 105.309 20.96 106.045 20.96ZM105.805 10.136C106.765 10.136 107.573 10.256 108.229 10.496C108.885 10.736 109.405 11.072 109.789 11.504C110.189 11.936 110.469 12.464 110.629 13.088C110.805 13.696 110.893 14.368 110.893 15.104V22.712C110.445 22.808 109.765 22.92 108.853 23.048C107.957 23.192 106.941 23.264 105.805 23.264C105.053 23.264 104.365 23.192 103.741 23.048C103.117 22.904 102.581 22.672 102.133 22.352C101.701 22.032 101.357 21.616 101.101 21.104C100.861 20.592 100.741 19.96 100.741 19.208C100.741 18.488 100.877 17.88 101.149 17.384C101.437 16.888 101.821 16.488 102.301 16.184C102.781 15.864 103.333 15.64 103.957 15.512C104.597 15.368 105.261 15.296 105.949 15.296C106.269 15.296 106.605 15.32 106.957 15.368C107.309 15.4 107.685 15.464 108.085 15.56V15.08C108.085 14.744 108.045 14.424 107.965 14.12C107.885 13.816 107.741 13.552 107.533 13.328C107.341 13.088 107.077 12.904 106.741 12.776C106.421 12.648 106.013 12.584 105.517 12.584C104.845 12.584 104.229 12.632 103.669 12.728C103.109 12.824 102.653 12.936 102.301 13.064L101.941 10.712C102.309 10.584 102.845 10.456 103.549 10.328C104.253 10.2 105.005 10.136 105.805 10.136ZM118.962 14.552L121.626 10.448H124.674L120.546 16.376C121.41 17.496 122.234 18.632 123.018 19.784C123.818 20.92 124.474 21.992 124.986 23H121.842C121.698 22.696 121.506 22.352 121.266 21.968C121.042 21.568 120.794 21.16 120.522 20.744C120.266 20.312 119.994 19.888 119.706 19.472C119.418 19.056 119.138 18.664 118.866 18.296C118.306 19.016 117.754 19.816 117.21 20.696C116.682 21.56 116.242 22.328 115.89 23H112.914C113.154 22.52 113.442 22.008 113.778 21.464C114.114 20.92 114.474 20.368 114.858 19.808C115.242 19.232 115.634 18.664 116.034 18.104C116.45 17.528 116.858 16.984 117.258 16.472L113.106 10.448H116.298L118.962 14.552Z" fill="white"/>
<defs>
<filter id="filter0_d_262_814" x="0" y="0" width="28.1523" height="27.9999" filterUnits="userSpaceOnUse" color-interpolation-filters="sRGB">
<feFlood flood-opacity="0" result="BackgroundImageFix"/>
<feColorMatrix in="SourceAlpha" type="matrix" values="0 0 0 0 0 0 0 0 0 0 0 0 0 0 0 0 0 0 127 0" result="hardAlpha"/>
<feOffset dy="1"/>
<feGaussianBlur stdDeviation="1"/>
<feComposite in2="hardAlpha" operator="out"/>
<feColorMatrix type="matrix" values="0 0 0 0 0 0 0 0 0 0 0 0 0 0 0 0 0 0 0.1 0"/>
<feBlend mode="normal" in2="BackgroundImageFix" result="effect1_dropShadow_262_814"/>
<feBlend mode="normal" in="SourceGraphic" in2="effect1_dropShadow_262_814" result="shape"/>
</filter>
<clipPath id="clip0_262_814">
<rect width="29" height="28" fill="white"/>
</clipPath>
</defs>
</svg>
