<svg id="canvas" height="auto" xmlns="http://www.w3.org/2000/svg" version="1.1" xmlns:xlink="http://www.w3.org/1999/xlink" viewBox="0 0 1000 1000" width="auto" style="width: auto; height: auto;"><rect width="1000" height="1000" fill="#000000"/><g transform="matrix(0.6424043150576483,-0.7663659021611763,0.7663659021611763,0.6424043150576483,-627.2735127891674,490.78957281030966)"><rect width="707.1067811865476" height="239.6679332710366" fill="#111111" x="0" y="-100" rx="15" ry="15"/><rect width="707.1067811865476" height="292.85696823796286" fill="#111111" x="727.1067811865476" y="0" rx="15" ry="15"/><rect width="707.1067811865476" height="171.56410298795836" fill="#111111" x="0" y="159.6679332710366" rx="15" ry="15"/><rect width="707.1067811865476" height="216.31255769995602" fill="#111111" x="727.1067811865476" y="312.85696823796286" rx="15" ry="15"/><rect width="707.1067811865476" height="188.67151382815325" fill="#111111" x="0" y="351.232036258995" rx="15" ry="15"/><rect width="707.1067811865476" height="319.63507061460433" fill="#111111" x="727.1067811865476" y="549.1695259379189" rx="15" ry="15"/><rect width="707.1067811865476" height="200.93445670795492" fill="#111111" x="0" y="559.9035500871482" rx="15" ry="15"/><rect width="707.1067811865476" height="342.96774796379106" fill="#111111" x="727.1067811865476" y="888.8045965525232" rx="15" ry="15"/><rect width="707.1067811865476" height="168.29068329751007" fill="#111111" x="0" y="780.8380067951032" rx="15" ry="15"/><rect width="707.1067811865476" height="207.03682546324688" fill="#111111" x="727.1067811865476" y="1251.7723445163142" rx="15" ry="15"/><rect width="707.1067811865476" height="266.0345697242151" fill="#111111" x="0" y="969.1286900926133" rx="15" ry="15"/><rect width="707.1067811865476" height="167.367655605729" fill="#111111" x="727.1067811865476" y="1478.8091699795611" rx="15" ry="15"/><rect width="707.1067811865476" height="179.1879948157824" fill="#111111" x="0" y="1255.1632598168285" rx="15" ry="15"/><rect width="707.1067811865476" height="173.46470556460926" fill="#111111" x="727.1067811865476" y="1666.17682558529" rx="15" ry="15"/></g></svg>